<mxfile host="app.diagrams.net" agent="Mozilla/5.0 (Macintosh; Intel Mac OS X 10_15_7) AppleWebKit/537.36 (KHTML, like Gecko) Chrome/127.0.0.0 Safari/537.36" version="24.7.6">
  <diagram name="第 1 页" id="9ODs0Qua660HP017xiVU">
    <mxGraphModel dx="1504" dy="427" grid="1" gridSize="10" guides="1" tooltips="1" connect="1" arrows="1" fold="1" page="1" pageScale="1" pageWidth="827" pageHeight="1169" math="0" shadow="0">
      <root>
        <mxCell id="0" />
        <mxCell id="1" parent="0" />
        <mxCell id="njDCJ_qlVzi4br1Py447-1" value="" style="rounded=1;whiteSpace=wrap;html=1;fillColor=#97D077;strokeColor=#97D077;" parent="1" vertex="1">
          <mxGeometry x="80" y="180" width="600" height="100" as="geometry" />
        </mxCell>
        <mxCell id="njDCJ_qlVzi4br1Py447-2" value="TUIChat" style="rounded=1;whiteSpace=wrap;html=1;fillColor=#FFB570;strokeColor=#FFB570;" parent="1" vertex="1">
          <mxGeometry x="90" y="40" width="100" height="71" as="geometry" />
        </mxCell>
        <mxCell id="njDCJ_qlVzi4br1Py447-4" value="TUIRoom" style="rounded=1;whiteSpace=wrap;html=1;fillColor=#FFB570;strokeColor=#FFB570;" parent="1" vertex="1">
          <mxGeometry x="420" y="41" width="100" height="71" as="geometry" />
        </mxCell>
        <mxCell id="njDCJ_qlVzi4br1Py447-5" value="TUICall" style="rounded=1;whiteSpace=wrap;html=1;strokeColor=#FFF4C3;fillColor=#FFF4C3;" parent="1" vertex="1">
          <mxGeometry x="260" y="41" width="87" height="70" as="geometry" />
        </mxCell>
        <mxCell id="njDCJ_qlVzi4br1Py447-6" value="TUILive" style="rounded=1;whiteSpace=wrap;html=1;strokeColor=#D5E8D4;fillColor=#d5e8d4;" parent="1" vertex="1">
          <mxGeometry x="590" y="40" width="90" height="70" as="geometry" />
        </mxCell>
        <mxCell id="njDCJ_qlVzi4br1Py447-7" value="" style="rounded=0;whiteSpace=wrap;html=1;fillColor=#d5e8d4;strokeColor=#82b366;" parent="1" vertex="1">
          <mxGeometry x="110" y="210" width="550" height="60" as="geometry" />
        </mxCell>
        <mxCell id="njDCJ_qlVzi4br1Py447-8" value="TUICore（native）、TUIKitProvider(web)" style="text;html=1;align=center;verticalAlign=middle;whiteSpace=wrap;rounded=0;" parent="1" vertex="1">
          <mxGeometry x="220" y="180" width="300" height="30" as="geometry" />
        </mxCell>
        <mxCell id="njDCJ_qlVzi4br1Py447-10" value="Theme" style="text;html=1;align=center;verticalAlign=middle;whiteSpace=wrap;rounded=0;" parent="1" vertex="1">
          <mxGeometry x="110" y="204" width="60" height="30" as="geometry" />
        </mxCell>
        <mxCell id="njDCJ_qlVzi4br1Py447-11" value="light" style="rounded=1;whiteSpace=wrap;html=1;strokeColor=#FFFFFF;" parent="1" vertex="1">
          <mxGeometry x="120" y="234" width="80" height="30" as="geometry" />
        </mxCell>
        <mxCell id="njDCJ_qlVzi4br1Py447-12" value="&lt;font color=&quot;#ffffff&quot;&gt;dark&lt;/font&gt;" style="rounded=1;whiteSpace=wrap;html=1;fillColor=#000000;" parent="1" vertex="1">
          <mxGeometry x="210" y="234" width="80" height="30" as="geometry" />
        </mxCell>
        <mxCell id="njDCJ_qlVzi4br1Py447-13" value="" style="rounded=1;whiteSpace=wrap;html=1;fillColor=#3399FF;strokeColor=#3399FF;" parent="1" vertex="1">
          <mxGeometry x="300" y="234" width="80" height="30" as="geometry" />
        </mxCell>
        <mxCell id="njDCJ_qlVzi4br1Py447-14" value="" style="rounded=1;whiteSpace=wrap;html=1;fillColor=#FF33FF;strokeColor=#FF33FF;" parent="1" vertex="1">
          <mxGeometry x="390" y="234" width="80" height="30" as="geometry" />
        </mxCell>
        <mxCell id="njDCJ_qlVzi4br1Py447-15" value="" style="rounded=1;whiteSpace=wrap;html=1;fillColor=#60A917;fontColor=#ffffff;strokeColor=#60A917;" parent="1" vertex="1">
          <mxGeometry x="480" y="234" width="80" height="30" as="geometry" />
        </mxCell>
        <mxCell id="njDCJ_qlVzi4br1Py447-16" value="" style="rounded=1;whiteSpace=wrap;html=1;fillColor=#FF0A23;fontColor=#ffffff;strokeColor=#FF0A23;" parent="1" vertex="1">
          <mxGeometry x="570" y="234" width="80" height="30" as="geometry" />
        </mxCell>
        <mxCell id="njDCJ_qlVzi4br1Py447-17" value="" style="shape=flexArrow;endArrow=classic;html=1;rounded=0;entryX=0.5;entryY=1;entryDx=0;entryDy=0;" parent="1" target="njDCJ_qlVzi4br1Py447-2" edge="1">
          <mxGeometry width="50" height="50" relative="1" as="geometry">
            <mxPoint x="140" y="180" as="sourcePoint" />
            <mxPoint x="440" y="160" as="targetPoint" />
          </mxGeometry>
        </mxCell>
        <mxCell id="njDCJ_qlVzi4br1Py447-20" value="" style="shape=flexArrow;endArrow=classic;html=1;rounded=0;entryX=0.5;entryY=1;entryDx=0;entryDy=0;" parent="1" target="njDCJ_qlVzi4br1Py447-5" edge="1">
          <mxGeometry width="50" height="50" relative="1" as="geometry">
            <mxPoint x="304" y="180" as="sourcePoint" />
            <mxPoint x="150" y="121" as="targetPoint" />
          </mxGeometry>
        </mxCell>
        <mxCell id="njDCJ_qlVzi4br1Py447-21" value="" style="shape=flexArrow;endArrow=classic;html=1;rounded=0;entryX=0.5;entryY=1;entryDx=0;entryDy=0;" parent="1" target="njDCJ_qlVzi4br1Py447-4" edge="1">
          <mxGeometry width="50" height="50" relative="1" as="geometry">
            <mxPoint x="470" y="180" as="sourcePoint" />
            <mxPoint x="314" y="121" as="targetPoint" />
          </mxGeometry>
        </mxCell>
        <mxCell id="njDCJ_qlVzi4br1Py447-22" value="" style="shape=flexArrow;endArrow=classic;html=1;rounded=0;entryX=0.5;entryY=1;entryDx=0;entryDy=0;exitX=0.926;exitY=-0.008;exitDx=0;exitDy=0;exitPerimeter=0;" parent="1" source="njDCJ_qlVzi4br1Py447-1" target="njDCJ_qlVzi4br1Py447-6" edge="1">
          <mxGeometry width="50" height="50" relative="1" as="geometry">
            <mxPoint x="480" y="190" as="sourcePoint" />
            <mxPoint x="480" y="122" as="targetPoint" />
          </mxGeometry>
        </mxCell>
        <mxCell id="njDCJ_qlVzi4br1Py447-23" value="1、Theme模块 支持 changeTheme(theme)&lt;div&gt;2、Theme模块 支持 addTheme(theme)&lt;/div&gt;&lt;div&gt;3、&lt;span style=&quot;background-color: initial;&quot;&gt;Theme模块&lt;/span&gt;&lt;span style=&quot;background-color: initial;&quot;&gt;&amp;nbsp;&lt;/span&gt;&lt;span style=&quot;background-color: initial;&quot;&gt;支持获取 theme 中的 color&lt;/span&gt;&lt;/div&gt;&lt;div style=&quot;&quot;&gt;4、&lt;span style=&quot;background-color: initial;&quot;&gt;Theme模块&lt;/span&gt;&lt;span style=&quot;background-color: initial;&quot;&gt;&amp;nbsp;&lt;/span&gt;&lt;span style=&quot;background-color: initial;&quot;&gt;支持修改 theme 中的 color&lt;/span&gt;&lt;/div&gt;" style="ellipse;shape=cloud;whiteSpace=wrap;html=1;align=center;" parent="1" vertex="1">
          <mxGeometry x="-370" y="50" width="380" height="170" as="geometry" />
        </mxCell>
        <mxCell id="njDCJ_qlVzi4br1Py447-24" value="" style="endArrow=classic;html=1;rounded=0;exitX=0;exitY=0.5;exitDx=0;exitDy=0;entryX=0.96;entryY=0.7;entryDx=0;entryDy=0;entryPerimeter=0;dashed=1;" parent="1" source="njDCJ_qlVzi4br1Py447-10" target="njDCJ_qlVzi4br1Py447-23" edge="1">
          <mxGeometry width="50" height="50" relative="1" as="geometry">
            <mxPoint x="160" y="240" as="sourcePoint" />
            <mxPoint x="210" y="190" as="targetPoint" />
          </mxGeometry>
        </mxCell>
        <mxCell id="njDCJ_qlVzi4br1Py447-25" value="" style="rounded=0;whiteSpace=wrap;html=1;" parent="1" vertex="1">
          <mxGeometry x="80" y="330" width="600" height="180" as="geometry" />
        </mxCell>
        <mxCell id="njDCJ_qlVzi4br1Py447-29" value="&lt;b&gt;&lt;font style=&quot;font-size: 14px;&quot;&gt;规范&lt;/font&gt;&lt;/b&gt;：&lt;div&gt;&amp;nbsp; &lt;b&gt;交互稿&lt;/b&gt;&lt;/div&gt;&lt;div&gt;&amp;nbsp; &amp;nbsp; 1、设计团队需要有一套颜色命名规范&lt;/div&gt;&lt;div&gt;&amp;nbsp; &amp;nbsp; 2、UI 贴图中 必须使用 规范中的 颜色命名&lt;/div&gt;&lt;div&gt;&lt;br&gt;&lt;/div&gt;&lt;div&gt;&amp;nbsp; &lt;b&gt;开发端&lt;/b&gt;&lt;/div&gt;&lt;div&gt;&amp;nbsp;&amp;nbsp;&lt;span style=&quot;background-color: initial;&quot;&gt;&amp;nbsp; &amp;nbsp;1、添加颜色的 Key 格式：--tuikit-${主题名}-${颜色名} （备注：&lt;/span&gt;&lt;span style=&quot;background-color: initial;&quot;&gt;分隔符风格按&lt;/span&gt;&lt;span style=&quot;background-color: initial;&quot;&gt;各平台语言规范）&lt;/span&gt;&lt;/div&gt;&lt;div&gt;&amp;nbsp; &amp;nbsp; &amp;nbsp;2、各个 TUI组件颜色统一使用公共模块中的主题颜色&lt;/div&gt;&lt;div&gt;&amp;nbsp; &amp;nbsp; &amp;nbsp;3、非规范的颜色找接口人添加到公共模块的颜色库中，且&lt;span style=&quot;background-color: initial;&quot;&gt;需要适配各个主题&lt;/span&gt;&lt;/div&gt;&lt;div&gt;&amp;nbsp;&amp;nbsp;&lt;/div&gt;&lt;div&gt;&lt;br&gt;&lt;/div&gt;" style="text;html=1;align=left;verticalAlign=middle;whiteSpace=wrap;rounded=0;" parent="1" vertex="1">
          <mxGeometry x="80" y="410" width="650" height="30" as="geometry" />
        </mxCell>
      </root>
    </mxGraphModel>
  </diagram>
</mxfile>
